<?xml version="1.0" standalone="no"?>
<!DOCTYPE svg PUBLIC "-//W3C//DTD SVG 20010904//EN"
 "http://www.w3.org/TR/2001/REC-SVG-20010904/DTD/svg10.dtd">
<svg version="1.0" xmlns="http://www.w3.org/2000/svg"
 width="50pt" height="50pt" viewBox="0 0 4000.000000 4000.000000"
 preserveAspectRatio="xMidYMid meet">

<g transform="translate(0.000000,4000.000000) scale(0.100000,-0.100000)"
fill="#e60023" stroke="none">
<path d="M17294 31938 c-13 -11 -24 -30 -24 -42 0 -40 93 -220 353 -681 72
-126 162 -288 202 -360 84 -152 343 -613 490 -870 56 -99 126 -223 155 -275
29 -52 87 -153 130 -225 42 -71 116 -204 165 -294 109 -205 147 -267 251 -412
241 -336 512 -495 984 -578 336 -59 897 -71 3790 -81 1312 -5 2401 -11 2420
-14 19 -3 104 -13 188 -21 289 -29 531 -93 812 -216 369 -162 639 -365 953
-717 211 -236 369 -470 503 -742 184 -372 277 -700 305 -1075 14 -178 5 -555
-16 -715 -70 -529 -262 -1002 -579 -1424 -282 -375 -771 -768 -1143 -917 -246
-99 -503 -162 -733 -179 -80 -6 -156 -13 -170 -15 -14 -3 -158 -12 -320 -20
-359 -19 -851 -25 -2190 -28 -805 -2 -1030 -5 -1047 -15 -56 -31 -20 -106 365
-782 58 -102 139 -246 180 -320 41 -74 141 -250 222 -390 81 -140 189 -329
240 -420 119 -211 224 -394 370 -645 64 -110 145 -252 180 -315 112 -204 419
-744 600 -1055 68 -115 155 -266 195 -335 39 -69 137 -237 217 -375 172 -296
455 -788 618 -1075 64 -113 209 -365 322 -560 113 -195 269 -467 348 -605 152
-266 310 -534 800 -1360 43 -71 133 -227 200 -345 68 -118 173 -300 235 -405
61 -104 129 -221 150 -260 37 -67 229 -380 304 -495 114 -177 272 -379 396
-509 221 -231 454 -383 770 -501 181 -68 332 -105 530 -131 150 -19 232 -21
1280 -29 616 -5 1288 -7 1493 -5 341 2 374 4 392 20 11 10 20 31 20 47 0 34
-46 140 -88 200 -32 47 -344 575 -462 783 -41 72 -120 207 -175 300 -56 94
-146 249 -200 345 -54 96 -172 299 -261 450 -89 151 -201 345 -249 430 -49 85
-224 385 -390 665 -166 281 -333 564 -370 630 -37 66 -132 228 -210 360 -178
301 -240 409 -295 510 -87 163 -495 882 -673 1185 -46 80 -129 222 -184 315
-55 94 -144 247 -198 340 -54 94 -151 258 -215 365 -64 107 -152 258 -195 335
-43 77 -109 189 -147 249 -74 119 -94 170 -84 211 8 33 167 138 408 268 470
254 716 406 993 613 310 231 512 409 766 675 612 642 1053 1296 1357 2009 399
937 551 1744 529 2815 -16 807 -171 1561 -480 2343 -79 200 -255 570 -394 827
-186 343 -539 855 -774 1120 -95 108 -395 422 -479 501 -278 264 -684 596
-900 736 -150 97 -460 282 -615 366 -505 274 -1210 528 -1760 636 -553 108
-839 144 -1350 170 -474 25 -767 27 -4863 30 -3858 3 -3923 3 -3948 -16z"/>
<path d="M14446 31888 c-24 -22 -157 -262 -371 -668 -50 -96 -115 -216 -143
-266 -28 -50 -74 -136 -103 -190 -162 -306 -386 -726 -487 -909 -120 -219
-197 -362 -365 -680 -55 -104 -136 -255 -180 -335 -210 -384 -264 -482 -384
-710 -117 -220 -318 -599 -533 -1000 -42 -80 -156 -291 -252 -470 -96 -179
-239 -446 -318 -595 -79 -148 -179 -335 -223 -415 -44 -80 -128 -235 -187
-345 -144 -270 -288 -536 -430 -795 -65 -118 -168 -312 -230 -430 -120 -228
-134 -255 -422 -785 -102 -187 -271 -500 -375 -695 -104 -195 -311 -580 -460
-855 -148 -275 -325 -606 -393 -735 -68 -129 -166 -314 -218 -410 -52 -96
-152 -283 -222 -415 -70 -132 -183 -341 -250 -465 -141 -259 -329 -612 -472
-885 -55 -104 -108 -203 -118 -220 -19 -32 -105 -192 -313 -585 -71 -135 -211
-393 -309 -575 -298 -547 -369 -677 -533 -985 -87 -162 -181 -338 -210 -390
-29 -52 -115 -212 -190 -355 -76 -143 -204 -381 -285 -530 -80 -148 -173 -319
-205 -380 -32 -60 -132 -247 -223 -415 -91 -168 -249 -462 -352 -655 -103
-192 -214 -399 -247 -460 -146 -268 -269 -497 -383 -710 -179 -335 -251 -468
-365 -675 -110 -199 -298 -552 -353 -663 -38 -77 -37 -112 4 -127 30 -12 1525
-12 2434 0 575 7 635 10 750 30 386 67 724 222 1022 469 194 161 415 432 563
691 50 87 240 434 418 760 55 102 162 298 237 435 75 138 171 313 212 390 203
375 277 512 425 780 88 160 252 461 363 670 112 209 258 479 325 600 67 121
155 283 195 360 75 143 483 894 505 930 7 11 43 76 80 145 148 276 288 534
383 710 55 102 142 262 192 355 51 94 137 253 192 355 157 290 511 950 658
1225 73 138 167 313 208 390 99 186 308 581 469 885 25 47 82 155 128 240 208
391 430 810 510 965 48 94 154 296 235 450 81 154 234 449 340 655 267 519
288 553 328 531 11 -6 33 -32 49 -58 32 -51 200 -360 303 -558 115 -219 302
-568 400 -745 53 -96 126 -232 162 -301 62 -117 186 -344 431 -784 122 -219
246 -443 309 -562 26 -48 98 -178 159 -288 120 -217 144 -261 358 -650 79
-143 192 -348 251 -455 59 -107 143 -260 185 -340 42 -80 117 -212 165 -295
49 -82 110 -190 138 -240 40 -74 57 -94 93 -115 l44 -25 560 -6 c964 -12 3604
-10 3626 1 42 23 25 66 -140 345 -46 76 -101 175 -123 220 -23 44 -100 184
-173 310 -72 127 -176 311 -230 410 -54 99 -109 197 -121 217 -13 20 -69 121
-125 225 -56 103 -134 244 -174 313 -40 69 -169 303 -288 520 -202 371 -279
510 -439 790 -110 194 -437 783 -611 1102 -43 79 -115 211 -161 293 -45 83
-141 256 -213 385 -71 129 -159 289 -194 355 -74 136 -490 885 -733 1320 -90
160 -185 331 -211 380 -58 107 -371 673 -425 765 -57 98 -189 338 -330 600
-70 129 -183 336 -252 460 -185 332 -401 727 -578 1055 -86 160 -222 407 -303
550 -275 492 -302 541 -397 725 -53 102 -128 242 -167 310 -115 204 -277 498
-433 785 -81 149 -189 341 -239 428 -50 88 -107 189 -125 225 -34 67 -69 112
-86 112 -5 0 -20 -10 -34 -22z"/>
<path d="M12650 18374 c0 -21 20 -38 530 -450 69 -56 200 -166 291 -245 163
-142 354 -301 517 -433 46 -37 179 -149 296 -249 116 -100 348 -297 516 -437
167 -140 380 -320 474 -400 368 -313 666 -569 776 -665 63 -56 178 -153 255
-216 151 -123 459 -384 730 -619 327 -283 621 -533 790 -670 94 -76 223 -182
287 -237 465 -393 1005 -851 1235 -1048 77 -66 216 -183 309 -260 93 -77 243
-205 334 -285 445 -392 638 -550 810 -662 365 -240 828 -367 1390 -382 107 -3
990 -7 1961 -8 1897 -3 1799 -6 1799 46 -1 26 -54 126 -152 281 -41 66 -169
278 -283 470 -114 193 -249 418 -298 500 -50 83 -126 211 -170 285 -44 74
-131 216 -192 315 -62 99 -145 234 -185 300 -132 216 -356 548 -446 660 -187
232 -402 433 -629 585 -145 97 -230 143 -415 225 -264 116 -376 156 -1415 505
-341 114 -728 247 -860 295 -132 48 -258 93 -280 100 -22 7 -186 63 -365 125
-179 61 -424 145 -545 185 -402 134 -1037 352 -1270 435 -126 46 -435 152
-685 236 -250 84 -558 189 -685 233 -126 43 -367 127 -535 184 -168 58 -363
126 -435 152 -71 26 -274 96 -450 155 -396 133 -819 277 -1205 410 -162 55
-374 127 -470 160 -328 111 -665 228 -900 312 -368 133 -430 149 -430 112z"/>
</g>
</svg>
